<svg xmlns="http://www.w3.org/2000/svg" viewBox="0 0 750 500">
    <g id="freepik--background-simple--inject-16">
        <path
            d="M587.06,434.24c-48.35,31.33-116.74,56.55-174.9,43.44-87.88-19.79-137.94,28.33-264-47.06a278.45,278.45,0,0,1-50.36-37.93,211.66,211.66,0,0,1-20.2-22.27c-54.16-68.95-45.87-151.55,1-217.28,61.57-86.47,158-91.31,218.6-91.87S479.9-2.64,604.63,70.59a269.91,269.91,0,0,1,51.78,39c34.77,33.83,60.26,80.79,59,128.55-.09,3.59-.32,7.19-.66,10.8C708,319.41,653,391.51,587.06,434.24Z"
            style="fill:#263238"></path>
        <path
            d="M587.06,434.24c-48.35,31.33-116.74,56.55-174.9,43.44-87.88-19.79-137.94,28.33-264-47.06a278.45,278.45,0,0,1-50.36-37.93,211.66,211.66,0,0,1-20.2-22.27c-54.16-68.95-45.87-151.55,1-217.28,61.57-86.47,158-91.31,218.6-91.87S479.9-2.64,604.63,70.59a269.91,269.91,0,0,1,51.78,39c34.77,33.83,60.26,80.79,59,128.55-.09,3.59-.32,7.19-.66,10.8C708,319.41,653,391.51,587.06,434.24Z"
            style="fill:#fff;opacity:0.8"></path>
    </g>
    <g id="freepik--Birds--inject-16" class="">
        <path
            d="M471.93,58.81s-3.52-3.23-5.87-5.58.29-3.23,4.4-2,6.76,6.16,6.76,6.16,3.52-2.93,4.69-2.35,0,4.11-.88,4.11,3.53,2.35,4.11,4.11,1.47,4.41.3,4.41-9.69-4.7-9.69-4.7-6.75,3.52-5.87,1.18S471.93,58.81,471.93,58.81Z"
            style="fill:#263238"></path>
        <path
            d="M527.28,39.52s-2.62-2.4-4.37-4.15.22-2.41,3.28-1.53,5,4.59,5,4.59,2.62-2.19,3.5-1.75,0,3.06-.66,3.06,2.62,1.75,3.06,3.06,1.09,3.28.22,3.28-7.21-3.5-7.21-3.5-5,2.62-4.38.88S527.28,39.52,527.28,39.52Z"
            style="fill:#263238"></path>
        <path
            d="M517.12,60.15s-2-1.79-3.26-3.09.17-1.79,2.44-1.14,3.75,3.42,3.75,3.42,2-1.63,2.6-1.3,0,2.27-.49,2.27,2,1.3,2.28,2.28.81,2.44.16,2.44-5.37-2.6-5.37-2.6-3.74,1.95-3.25.65S517.12,60.15,517.12,60.15Z"
            style="fill:#263238"></path>
        <path
            d="M526.78,108.22s-1.95-1.79-3.25-3.09.16-1.79,2.44-1.14,3.74,3.42,3.74,3.42,1.95-1.63,2.6-1.31,0,2.28-.49,2.28,2,1.3,2.28,2.28.82,2.44.16,2.44-5.36-2.6-5.36-2.6-3.75,2-3.26.65S526.78,108.22,526.78,108.22Z"
            style="fill:#263238"></path>
        <path
            d="M217.55,104s-3.53-3.23-5.88-5.57.3-3.23,4.41-2.06,6.75,6.17,6.75,6.17,3.52-2.94,4.7-2.35,0,4.11-.88,4.11,3.52,2.35,4.11,4.11,1.47,4.4.29,4.4-9.69-4.7-9.69-4.7-6.75,3.53-5.87,1.18S217.55,104,217.55,104Z"
            style="fill:#263238"></path>
        <path
            d="M262.73,105.33s-2-1.78-3.25-3.09.16-1.79,2.44-1.14,3.74,3.42,3.74,3.42,1.95-1.63,2.6-1.3,0,2.28-.48,2.28,2,1.3,2.27,2.28.82,2.44.17,2.44-5.37-2.61-5.37-2.61-3.74,2-3.26.65S262.73,105.33,262.73,105.33Z"
            style="fill:#263238"></path>
        <path
            d="M246,122.09s-2-1.79-3.26-3.09.16-1.79,2.44-1.14,3.74,3.42,3.74,3.42,2-1.63,2.61-1.3,0,2.27-.49,2.27,1.95,1.31,2.28,2.28.81,2.44.16,2.44-5.37-2.6-5.37-2.6-3.74,1.95-3.25.65S246,122.09,246,122.09Z"
            style="fill:#263238"></path>
    </g>
    <g id="freepik--Clouds--inject-16" class="">
        <path
            d="M454,95.4H402.7a.5.5,0,0,1-.5-.5.51.51,0,0,1,.5-.5h50.9c.24-1.17.58-5-4.51-7.8a14.74,14.74,0,0,0-7.32-1.91c-1.73-.07-3.21-.12-4.48-1.71-.8-1-.55-2.32-.27-3.85.67-3.7,1.6-8.77-10.61-14.06a.51.51,0,0,1-.3-.42c-.05-.65-1.44-15.87-24.56-16.43-8.64-.22-14.07,1.8-17,6.35a.5.5,0,0,1-.84-.55c3.17-4.86,8.87-7,17.89-6.8,22.24.54,25.18,14.76,25.5,17,12.67,5.57,11.62,11.27,10.93,15-.25,1.35-.44,2.41.07,3,1,1.22,2.08,1.27,3.74,1.33a15.77,15.77,0,0,1,7.76,2c6.7,3.65,4.91,9.27,4.89,9.33A.49.49,0,0,1,454,95.4Z"
            style="fill:#263238"></path>
        <path d="M395.59,95.4h-8.54a.5.5,0,0,1-.5-.5.51.51,0,0,1,.5-.5h8.54a.5.5,0,0,1,.5.5A.5.5,0,0,1,395.59,95.4Z"
            style="fill:#263238"></path>
        <path
            d="M372.11,95.4h-65.5a.48.48,0,0,1-.47-.35.47.47,0,0,1,.18-.55s4.13-3,7.59-5.26c2.62-1.74,6.36-1.06,9.36-.51a20.07,20.07,0,0,0,3.15.43c1.21,0,1.83-.73,2.95-2.06a24.34,24.34,0,0,1,6.1-5.43c4-2.56,8.25-1.2,12,0,2.49.8,4.83,1.55,6.82,1.1,2.28-.5,2.82-2.53,3.52-5.1s1.63-6,5.06-8.23,5.57-1.53,7.69-.93,3.86,1.1,6.87-.82c1.69-1.07,2.43-3.2,3.1-5.48a.5.5,0,0,1,1,.28c-.72,2.47-1.54,4.79-3.52,6.05-3.39,2.16-5.58,1.53-7.69.93s-3.86-1.1-6.87.82-3.92,5-4.64,7.65-1.4,5.17-4.26,5.81c-2.26.5-4.73-.29-7.34-1.12-3.7-1.19-7.53-2.41-11.14-.11a23.42,23.42,0,0,0-5.88,5.24c-1.18,1.4-2,2.41-3.71,2.41a20.82,20.82,0,0,1-3.33-.44c-2.83-.52-6.34-1.17-8.63.36s-4.79,3.28-6.28,4.32h63.93a.5.5,0,0,1,.5.5A.5.5,0,0,1,372.11,95.4Z"
            style="fill:#263238"></path>
        <path
            d="M257,58.08H227.5a.5.5,0,0,1,0-1h29.14c.11-.77.07-2.68-2.52-4.09A8.3,8.3,0,0,0,250,51.91a3.15,3.15,0,0,1-2.74-1.06,2.91,2.91,0,0,1-.2-2.39c.38-2.06.9-4.89-6-7.87a.51.51,0,0,1-.3-.42c0-.37-.83-9-13.94-9.27-6.45-.16-8.58,2-9.63,3.56a.5.5,0,0,1-.69.15.49.49,0,0,1-.14-.69c1.86-2.87,5.19-4.15,10.48-4,12.62.31,14.6,8.21,14.88,9.89,7.33,3.26,6.72,6.62,6.31,8.85-.13.72-.24,1.29,0,1.58.48.61,1,.65,2,.69a9.23,9.23,0,0,1,4.56,1.2c4,2.19,2.94,5.59,2.92,5.63A.5.5,0,0,1,257,58.08Z"
            style="fill:#263238"></path>
        <path d="M223.4,58.08h-4.92a.5.5,0,0,1,0-1h4.92a.5.5,0,0,1,0,1Z" style="fill:#263238"></path>
        <path
            d="M209.88,58.08H172.15a.5.5,0,0,1-.48-.35.51.51,0,0,1,.19-.56s2.38-1.69,4.37-3c1.59-1,3.79-.65,5.55-.32a11.91,11.91,0,0,0,1.78.24c.58,0,.87-.32,1.53-1.11a14.46,14.46,0,0,1,3.57-3.17c2.39-1.53,4.88-.73,7.08,0a7.86,7.86,0,0,0,3.82.63c1.13-.25,1.43-1.17,1.86-2.78s1-3.57,3-4.87a4.86,4.86,0,0,1,4.6-.56,3.9,3.9,0,0,0,3.79-.45,5.12,5.12,0,0,0,1.69-3,.51.51,0,0,1,.62-.34.5.5,0,0,1,.34.62c-.43,1.47-.91,2.84-2.12,3.61a4.89,4.89,0,0,1-4.6.56,3.87,3.87,0,0,0-3.78.44c-1.72,1.1-2.16,2.72-2.58,4.29s-.84,3.1-2.62,3.5a8.59,8.59,0,0,1-4.33-.65c-2.09-.67-4.25-1.36-6.24-.09a13.28,13.28,0,0,0-3.34,3c-.69.82-1.23,1.47-2.3,1.47a11.66,11.66,0,0,1-2-.26c-1.59-.29-3.57-.66-4.81.18-1.06.7-2.21,1.5-3.07,2.1h36.16a.5.5,0,0,1,0,1Z"
            style="fill:#263238"></path>
    </g>
    <g id="freepik--Floor--inject-16" class="">
        <path d="M743.71,448.5H28.28a.51.51,0,0,1-.5-.5.5.5,0,0,1,.5-.5H743.71a.5.5,0,0,1,.5.5A.5.5,0,0,1,743.71,448.5Z"
            style="fill:#263238"></path>
    </g>
    <g id="freepik--character-2--inject-16">
        <path
            d="M431.39,152.88s-5.92,6-6.15,7.94.31,6.31-1.23,8.29-7,4.8-7.06,5.94,2.79,2.74,2.79,2.74,3.35,13.57,4.48,14.73,1.3,1.29,2.26,1.17,6.72-2.15,6.72-2.15l2.7,9.74,21.41-9.55-2.64-8s10.61-12.58,11.52-18.22-5.66-15.07-9.5-17.18-16.95-2.73-16.95-2.73,1.44-2.79-.46-2.39a8,8,0,0,0-3.6,2.41s-2.49-2.93-4.85-1-2.77,3.77-2.27,5.17S431.39,152.88,431.39,152.88Z"
            style="fill:#fff"></path>
        <path
            d="M435.91,201.78a.42.42,0,0,1-.22-.05.49.49,0,0,1-.27-.31l-2.56-9.23c-1.48.52-5.47,1.89-6.32,2-1.21.15-1.52-.13-2.68-1.33s-3.88-12.05-4.55-14.75c-.87-.51-2.87-1.83-2.85-3.07,0-.82,1.18-1.67,3.42-3.23a20.59,20.59,0,0,0,3.74-3c1-1.3,1-3.85,1-5.9,0-.84,0-1.56.08-2.14.22-1.85,4.47-6.36,5.89-7.83a8.36,8.36,0,0,1-2.54-2.94c-.39-1.08-.59-3.26,2.42-5.72,1.92-1.57,4-.42,5.16.66a7.79,7.79,0,0,1,3.5-2.16,1.24,1.24,0,0,1,1.36.35,2.33,2.33,0,0,1,0,2.06c2.84.16,13,.87,16.44,2.75,3.81,2.09,10.73,11.61,9.75,17.7-.86,5.37-10,16.5-11.45,18.25l2.55,7.69a.5.5,0,0,1-.27.62l-21.4,9.55A.51.51,0,0,1,435.91,201.78ZM433.2,191a.59.59,0,0,1,.23.05.48.48,0,0,1,.25.31l2.55,9.19,20.46-9.13-2.49-7.54a.47.47,0,0,1,.09-.47c.1-.13,10.53-12.54,11.41-18,.84-5.28-5.32-14.51-9.26-16.67-3.7-2-16.59-2.66-16.72-2.66a.52.52,0,0,1-.41-.25.48.48,0,0,1,0-.48,2.84,2.84,0,0,0,.43-1.68h0a.67.67,0,0,0-.35,0,7.57,7.57,0,0,0-3.32,2.25.52.52,0,0,1-.38.17h0a.49.49,0,0,1-.38-.17c-.09-.11-2.21-2.54-4.15-1s-2.64,3.18-2.12,4.61a8.61,8.61,0,0,0,2.65,2.82.54.54,0,0,1,.21.37.48.48,0,0,1-.15.39c-2.24,2.26-5.85,6.33-6,7.65-.06.52-.06,1.25-.07,2,0,2.21,0,4.95-1.25,6.52a20.45,20.45,0,0,1-4,3.21c-1.15.81-2.9,2-3,2.45s1.31,1.57,2.54,2.27a.51.51,0,0,1,.24.32c1.61,6.51,3.68,13.81,4.35,14.5,1.08,1.12,1.11,1.12,1.84,1s4.32-1.32,6.62-2.13A.45.45,0,0,1,433.2,191Z"
            style="fill:#263238"></path>
        <path
            d="M456.69,148.37c-3.85-2.12-16.95-2.73-16.95-2.73s1.44-2.79-.46-2.39a8,8,0,0,0-3.6,2.41s-2.49-2.93-4.85-1-2.77,3.77-2.27,5.17,2.83,3.06,2.83,3.06,8.13,1.25,8.79,1.32-.82,2.55-1.79,5.11,5.61,5.8,5.61,5.8-2,5-1.23,5.69,2.72-1.65,2.72-1.65,2.22-3.05,3.92-2.45a7.28,7.28,0,0,1,3.78,8c-.95,4-7.8,5.22-7.8,5.22s5.33,2.25,6.9,3,1.36,1.78,2.38.84c0,0,10.61-12.58,11.52-18.22S460.53,150.48,456.69,148.37Z"
            style="fill:#263238"></path>
        <path
            d="M454,184.64a1.3,1.3,0,0,1-.88-.48,3.93,3.93,0,0,0-1.07-.78c-1.53-.76-6.81-3-6.86-3a.5.5,0,0,1,.11-1c.06,0,6.53-1.19,7.4-4.84a6.86,6.86,0,0,0-3.46-7.4c-1.11-.39-2.83,1.56-3.35,2.27-.29.35-1.67,1.94-2.71,2a1,1,0,0,1-.76-.27c-.77-.75.05-3.48.94-5.81-1.57-.83-6.44-3.62-5.45-6.21.34-.89.73-1.76,1.08-2.53a20.42,20.42,0,0,0,.81-2c-1.62-.23-8.19-1.24-8.5-1.29a.49.49,0,0,1-.21-.08c-.1-.07-2.46-1.77-3-3.3-.39-1.08-.59-3.26,2.42-5.72,1.92-1.57,4-.42,5.16.66a7.79,7.79,0,0,1,3.5-2.16,1.24,1.24,0,0,1,1.36.35,2.33,2.33,0,0,1,0,2.06c2.84.16,13,.87,16.44,2.75,3.81,2.09,10.73,11.61,9.75,17.7-.92,5.72-11.19,17.94-11.63,18.46A1.62,1.62,0,0,1,454,184.64ZM447,180c1.7.73,4.46,1.92,5.53,2.45a5.05,5.05,0,0,1,1.31,1l.23.21s.1-.08.28-.25,10.49-12.49,11.37-17.93c.84-5.28-5.32-14.51-9.26-16.67h0c-3.7-2-16.59-2.66-16.72-2.66a.52.52,0,0,1-.41-.25.48.48,0,0,1,0-.48,2.84,2.84,0,0,0,.43-1.68h0a.67.67,0,0,0-.35,0,7.57,7.57,0,0,0-3.32,2.25.52.52,0,0,1-.38.17h0a.49.49,0,0,1-.38-.17c-.09-.11-2.21-2.54-4.15-1s-2.64,3.18-2.12,4.61a8.36,8.36,0,0,0,2.55,2.75c1,.16,8.06,1.24,8.66,1.31a.67.67,0,0,1,.51.33c.27.49,0,1.22-.84,3-.34.76-.73,1.61-1.06,2.47-.66,1.75,3.77,4.38,5.37,5.17a.5.5,0,0,1,.25.63c-.94,2.38-1.55,4.75-1.33,5.17.26,0,1.17-.67,2-1.63.23-.32,2.47-3.31,4.47-2.6s5.11,4.31,4.1,8.57C452.94,177.9,449.15,179.41,447,180Z"
            style="fill:#263238"></path>
        <polygon points="433.2 191.54 440.31 188.52 434.65 196.56 433.2 191.54" style="fill:#263238"></polygon>
        <path
            d="M434.65,197.06h-.08a.51.51,0,0,1-.4-.35l-1.45-5a.49.49,0,0,1,.29-.6l7.1-3a.48.48,0,0,1,.58.15.5.5,0,0,1,0,.6l-5.65,8A.49.49,0,0,1,434.65,197.06Zm-.84-5.24,1,3.6,4.05-5.76Z"
            style="fill:#263238"></path>
        <path d="M427.49,168.84c-.32,1.21-1,2.09-1.44,2s-.6-1.2-.28-2.41,1-2.08,1.44-2S427.81,167.64,427.49,168.84Z"
            style="fill:#263238"></path>
        <path
            d="M423.27,181.86a4.65,4.65,0,0,1-.71,0,.5.5,0,0,1-.42-.57.51.51,0,0,1,.57-.42,5.7,5.7,0,0,0,5.22-2.31.5.5,0,0,1,.7-.11.51.51,0,0,1,.11.7A6.64,6.64,0,0,1,423.27,181.86Z"
            style="fill:#263238"></path>
        <path
            d="M446.15,168.43h-.06l-26.93-3.25a.5.5,0,0,1-.44-.55.52.52,0,0,1,.56-.44l26.93,3.25a.5.5,0,0,1,.44.56A.51.51,0,0,1,446.15,168.43Z"
            style="fill:#263238"></path>
        <path
            d="M421.46,171.79a3.55,3.55,0,0,1-1.87-.82,2.07,2.07,0,0,1-.77-1.55c0-1.4.37-4.74.39-4.88a.49.49,0,0,1,.19-.33.5.5,0,0,1,.37-.1l5.39.69a.5.5,0,0,1,.43.56.51.51,0,0,1-.56.44l-4.88-.64c-.11,1-.35,3.22-.33,4.24s1.41,1.37,1.65,1.39a.47.47,0,0,1,.53.43.52.52,0,0,1-.46.56Z"
            style="fill:#263238"></path>
        <path
            d="M429.44,164.75a.47.47,0,0,1-.3-.1,2.4,2.4,0,0,0-2.53-.37.51.51,0,0,1-.68-.2.48.48,0,0,1,.19-.67,3.37,3.37,0,0,1,3.61.44.5.5,0,0,1,.11.69A.49.49,0,0,1,429.44,164.75Z"
            style="fill:#263238"></path>
        <path
            d="M498.27,211.18s3.9-35.56,3.9-36.23-.33-16.74-.16-17.74,2-5.86,2.17-7.53,1-4.18,1.68-3.85a2.24,2.24,0,0,1,1.34,2.34,34,34,0,0,1-.51,4.35s7-9.37,7.54-9.87,2.17-1,2.34.17-4,9.7-4,9.7,4.85,4.19,5.69,5.19,1.17,3,1,5.19-1,4.52-1.85,4.85-1.84-1.17-1.84-1.17l-2.84,5.69-2.85,3.85s3.18,31.63,3.69,39.5.83,10.38,0,11.55-11.89,4.68-11.89,4.68Z"
            style="fill:#fff"></path>
        <path
            d="M501.27,232.51l-3.51-21.32v-.07c1.34-12.19,3.88-35.44,3.9-36.18,0-.12,0-.89,0-2-.14-7.76-.25-15-.13-15.78.08-.44.4-1.41.8-2.63a35.1,35.1,0,0,0,1.38-4.87c.12-1.22.73-3.72,1.64-4.22a.77.77,0,0,1,.75,0,2.73,2.73,0,0,1,1.62,2.79,20.77,20.77,0,0,1-.21,2.46c2.06-2.74,6-7.94,6.38-8.33a2.63,2.63,0,0,1,2.33-.62,1.24,1.24,0,0,1,.86,1.07c.17,1.16-2.74,7.29-3.89,9.65,1.07.93,4.71,4.1,5.46,5,.88,1.07,1.3,3.14,1.12,5.55-.15,1.89-.92,4.78-2.16,5.28a1.87,1.87,0,0,1-1.92-.72l-2.5,5-2.78,3.76c.27,2.66,3.19,31.86,3.66,39.33.08,1.2.15,2.28.22,3.24.38,5.6.51,7.49-.31,8.63s-9.51,4-12.14,4.87Zm-2.5-21.35,3.3,20c5.17-1.66,10.59-3.68,11.08-4.32.6-.85.46-2.94.12-8-.06-1-.14-2.05-.21-3.25-.5-7.77-3.65-39.16-3.68-39.48l0-.19,3-4,3.18-6.39.48.71c.33.49.95,1.1,1.24,1,.49-.2,1.35-2.14,1.53-4.43.16-2.12-.18-4-.89-4.83s-4-3.69-5.63-5.13l-.3-.25.17-.35c2-4.07,4-8.71,4-9.42a.25.25,0,0,0-.18-.25,1.71,1.71,0,0,0-1.31.37c-.36.37-4.67,6.08-7.49,9.82l-1.25,1.68.36-2.06a33.1,33.1,0,0,0,.5-4.27,1.74,1.74,0,0,0-.95-1.83,7.9,7.9,0,0,0-1.07,3.39,33.43,33.43,0,0,1-1.42,5.08c-.36,1.09-.7,2.12-.76,2.48-.12.76.07,11.54.14,15.6,0,1.15,0,1.92,0,2.06C502.67,175.62,499.21,207.21,498.77,211.16Z"
            style="fill:#263238"></path>
        <rect x="514.53" y="164.41" width="3.74" height="1" transform="translate(137.96 553.04) rotate(-63.43)"
            style="fill:#263238"></rect>
        <path
            d="M398.21,452.13l-8.28,5.39s-8.51,3.28-10,3.93.16,3.28,2,3.61,25.06,1.31,26.7,1.14,3.93.33,4.75-2-1-6.45-1-6.45Z"
            style="fill:#fff"></path>
        <path
            d="M407.87,466.72c-4.48,0-24.41-.87-26.05-1.17a3.94,3.94,0,0,1-2.94-3,1.44,1.44,0,0,1,.86-1.57c1.42-.63,9.2-3.62,10-3.92l8.45-5.5,14.57,5.83.08.19c.08.17,1.9,4.36,1,6.81-.77,2.18-2.76,2.22-4.21,2.26-.33,0-.66,0-1,0Zm-9.6-14-8.16,5.3c-.08,0-8.52,3.27-10,3.92a.44.44,0,0,0-.26.54,2.92,2.92,0,0,0,2.12,2.11c1.63.3,25,1.3,26.56,1.15a8.73,8.73,0,0,1,1,0c1.41,0,2.75-.06,3.29-1.59s-.4-4.65-.92-5.9Z"
            style="fill:#263238"></path>
        <path
            d="M411.14,305.68l-4.44,24.07-6.17,83.56-2.32,38.82s6.43,4.63,8,5.14,6.17.52,6.17.52,2.57-14.4,3.09-16.46,25.45-105.15,25.45-105.15l2.83-.26s20,69.93,20,70.71,17.86,48.28,17.86,48.28l11.82-1-8.08-54.71L473,322.56l.24-14.5Z"
            style="fill:#263238"></path>
        <path
            d="M412.77,458.29h-.42c-.19,0-4.72,0-6.33-.54s-7.44-4.73-8.1-5.21l-.22-.16,2.33-39.1,6.17-83.56,4.53-24.56,63,2.42-.25,15,12.33,76.53L494,454.33l-12.74,1.11-.13-.35c-5.38-14.32-17.89-47.69-17.89-48.46-.2-1.25-13-46.21-19.92-70.17l-2.06.19c-1.6,6.6-24.87,102.83-25.37,104.81s-3.05,16.27-3.08,16.42Zm-14-6.4c1.92,1.37,6.45,4.52,7.61,4.91a28.09,28.09,0,0,0,5.59.49c.44-2.42,2.55-14.2,3-16.08s25.2-104.12,25.45-105.15l.09-.34,3.59-.33.12.4c4.71,16.42,20.07,70,20.07,70.84.25,1.2,12.73,34.53,17.69,47.75l10.92-.95-8-54.19-12.34-76.61.23-14.09-61.21-2.34-4.36,23.64L401,413.35Z"
            style="fill:#263238"></path>
        <path
            d="M421.61,209.75s-15.94,4.28-16.9,5.95-10.95,47.37-10.95,47.37-16.66,52.85-16.66,53.8-1.19,9.28-2.14,14.76,3.09,8.57,4,9.28,9.05-4,10.24-6,0-5.24-.48-6.9-2.85-11.67-2.85-12.62,19-32.85,19-32.85l9.76-25v28.08l-3.57,20a146,146,0,0,0,31.42,6.43c15.95,1.19,30.71-4.05,30.71-4.05L484,237.84l17.86-3.57-3.57-23.09s-25.24-6-25.95-6S445.66,199.27,421.61,209.75Z"
            style="fill:#fff"></path>
        <path
            d="M379.3,341.49a1,1,0,0,1-.6-.18c-3.38-2.54-4.89-6-4.24-9.77,1-5.42,2.14-13.76,2.14-14.67s12.77-41.54,16.69-53.95c1-4.64,10-45.79,11-47.47s13.34-5.15,17.17-6.18c19.26-8.37,39.74-6.51,50.25-4.65l.64.11c.71,0,21.82,5,26,6l.33.08,3.69,23.89-18,3.6-10.7,70.17-.28.1c-.15.06-15,5.26-30.91,4.08A147.23,147.23,0,0,1,411,306.15l-.41-.13,3.65-20.42V260.25l-8.79,22.52c-7.48,12.55-18.68,31.54-19,32.75,0,.76,2.33,10.59,2.84,12.4l.16.54c.55,1.81,1.46,4.86.26,6.77s-7.77,5.8-10,6.21A2.43,2.43,0,0,1,379.3,341.49ZM453.69,204a80,80,0,0,0-31.88,6.18l-.07,0c-7.71,2.07-16,4.78-16.59,5.72-.7,1.29-6.9,29-10.9,47.23-4.57,14.51-16.46,52.37-16.65,53.73,0,1-1.25,9.6-2.15,14.8-.59,3.37.78,6.5,3.85,8.8,1,.22,8.39-4,9.52-5.81.95-1.53.12-4.3-.38-6l-.16-.54c-.42-1.5-2.87-11.68-2.87-12.76s12-21.15,19.11-33.11l10.69-27.39v30.74l-3.5,19.66a146.39,146.39,0,0,0,30.89,6.27c14.48,1.09,28.11-3.22,30.22-3.92l10.72-70.27,17.73-3.55-3.45-22.28c-10-2.35-24.75-5.8-25.52-5.87a4.42,4.42,0,0,1-.78-.12A104,104,0,0,0,453.69,204Z"
            style="fill:#263238"></path>
        <path
            d="M383.32,335.39a5,5,0,0,1-3-.67,1.09,1.09,0,0,1-.43-1c.13-1.17,2.68-2.12,4.61-2.67a6.23,6.23,0,0,1-1.44-1,4,4,0,0,1-1-2l1-.15a3,3,0,0,0,.72,1.45,9,9,0,0,0,2.43,1.33l1.5.58-1.57.37c-2.66.63-5.16,1.66-5.24,2.17,0,0,0,0,.07.1.74.6,3.88.63,6.49-.2l.3.95A15.5,15.5,0,0,1,383.32,335.39Z"
            style="fill:#263238"></path>
        <path
            d="M378.06,336.5l1.07-3,.1-.08a9.23,9.23,0,0,0,2-3.13c.79-2,.12-5.3.12-5.33l1-.21c0,.15.75,3.63-.16,5.91a10.2,10.2,0,0,1-2.2,3.41l-.37,1.05,2.28-.52.22,1Z"
            style="fill:#263238"></path>
        <path
            d="M472.32,205.22c-.72,0-26.66-5.95-50.71,4.53,0,0-15.94,4.28-16.9,5.95-.55,1-4.15,16.76-7.07,29.85l17.07,12.05v28.08l-3.57,20a146,146,0,0,0,31.42,6.43c15.95,1.19,30.71-4.05,30.71-4.05L484,237.84l17.86-3.57-3.57-23.09S473,205.22,472.32,205.22Z"
            style="fill:#949494"></path>
        <path
            d="M447.34,312.78c-1.58,0-3.19,0-4.81-.17A147.23,147.23,0,0,1,411,306.15l-.41-.13,3.65-20.42V257.85l-17.13-12.09.07-.32c6.43-28.76,7-29.68,7.13-30,1-1.71,13.42-5.17,17.2-6.19,19.2-8.36,39.71-6.5,50.22-4.64l.64.11h0c1,.07,21.85,5,26,6l.33.08,3.69,23.89-18,3.6-10.7,70.17-.28.1A88.06,88.06,0,0,1,447.34,312.78Zm-35.63-7.44a146.39,146.39,0,0,0,30.89,6.27c14.48,1.09,28.11-3.22,30.22-3.92l10.72-70.27,17.73-3.55-3.45-22.28c-9.94-2.35-24.68-5.78-25.52-5.86-.1,0-.25,0-.78-.13-10.39-1.84-30.68-3.68-49.71,4.61-7.78,2.09-16.1,4.8-16.66,5.74-.25.45-1.47,4.87-6.95,29.38l17,12v28.34Z"
            style="fill:#263238"></path>
        <rect x="408.05" y="246.97" width="22.06" height="1" transform="translate(25.73 534.07) rotate(-66.64)"
            style="fill:#263238"></rect>
        <path d="M427.63,295.69s-8.13-1-11.17-1.63l-3-.61.81-12.59,17.06,2.24Z" style="fill:#263238"></path>
        <path
            d="M428,296.24l-.42-.06c-.34,0-8.18-1-11.21-1.63l-3.48-.69.88-13.56,18.16,2.38Zm-14.05-3.19,2.62.52c2.59.52,9,1.35,10.71,1.57l3.37-11.62-15.95-2.09Z"
            style="fill:#263238"></path>
        <polygon points="416.19 253.47 433.27 274.23 432.41 269.9 418.14 250.01 416.19 253.47" style="fill:#263238">
        </polygon>
        <path d="M434.15,276.08l-18.56-22.55,2.5-4.44L432.9,269.8ZM416.8,253.42l15.59,19-.45-2.26-13.75-19.17Z"
            style="fill:#263238"></path>
        <path
            d="M463.86,190.82a27,27,0,0,0-11,.7c-7.6,2.1-20.54,5.78-23.19,7.28-3.81,2.14-10.95,11.66-10.95,11.66L439,207.37s-4.28,39.75-7.14,51.65-8.81,35.23-6.19,39.52,21.66,8.81,30.47,8.81,26.66-1.91,31.66-8.81,10.95-25.71,14.76-42.13,3.1-25,4.29-29.05,2.61-11.42,1.66-16.18-3.81-13.81-9-15.48-26.9-4.28-29.76-4.28A51.16,51.16,0,0,1,463.86,190.82Z"
            style="fill:#263238"></path>
        <path
            d="M456.13,307.85c-9.09,0-28.15-4.56-30.9-9.05-2.33-3.81,1.41-20.36,5.43-37l.7-2.92c2.62-10.91,6.5-45.76,7.06-51l-20.8,3.18.74-1c.29-.39,7.25-9.63,11.1-11.8,2.71-1.52,15.77-5.24,23.31-7.33a27.24,27.24,0,0,1,11.16-.7,52,52,0,0,0,5.77.59c2.92,0,24.72,2.65,29.91,4.31,6.31,2,8.92,13.55,9.38,15.85,1,5-.58,12.69-1.68,16.42a37.9,37.9,0,0,0-.84,6.46A147,147,0,0,1,503,256.52c-3.71,16-9.73,35.26-14.84,42.31S465,307.85,456.13,307.85ZM439.56,206.77l-.07.65c0,.4-4.32,39.92-7.15,51.72l-.71,2.92c-2.74,11.34-7.85,32.44-5.54,36.22,2.46,4,21.42,8.57,30,8.57,10.06,0,26.69-2.29,31.26-8.6,5-6.95,11-26.08,14.67-42a145.46,145.46,0,0,0,3.41-22.41,37.29,37.29,0,0,1,.89-6.66c1.07-3.64,2.62-11.1,1.65-15.95-1.21-6.07-4.22-13.66-8.71-15.09-5.13-1.63-26.71-4.26-29.6-4.26a49.94,49.94,0,0,1-5.91-.6h0A26.3,26.3,0,0,0,453,192c-7.5,2.07-20.47,5.76-23.09,7.23-3,1.67-8.11,8.08-10,10.55Z"
            style="fill:#263238"></path>
        <path
            d="M476.78,231.14v-1c11.91-.12,22-.45,22.79-.64l.16,0c1.48-.43,3.95-1.13,4.54-2.12l.86.52c-.79,1.32-3.3,2-5.13,2.56l-.16,0C498.89,230.73,486.93,231,476.78,231.14Z"
            style="fill:#263238"></path>
        <path
            d="M467.72,231.19c-10,0-20-.21-21.57-1-2.68-1.34-2.43-7.61-1.9-14.47.1-1.39.19-2.59.19-3.35h1c0,.8-.09,2-.2,3.42-.33,4.32-.95,12.36,1.35,13.51,1.32.65,11.46,1,27.11.87v1Z"
            style="fill:#263238"></path>
        <path d="M443.75,208.41a23,23,0,0,0-1.39-3.43l.88-.46a21.94,21.94,0,0,1,1.47,3.6Z" style="fill:#263238"></path>
        <path d="M493.83,264.72l-.17-1c2.79-.49,4.21-.91,4.23-.91l.28,1A44,44,0,0,1,493.83,264.72Z"
            style="fill:#263238"></path>
        <path
            d="M462.17,266.66c-9.36,0-18.26-.35-19.25-1.33-1.4-1.41-.58-5.41,2.52-12.23,2.3-5.06,1.16-19.6,1.15-19.75l1-.08c.05.61,1.18,14.95-1.23,20.25-3.9,8.58-3.2,10.62-2.72,11.1,1.46,1.16,24.67,1.36,37.23.57,3.29-.21,6.43-.51,9.32-.91l.14,1c-2.92.4-6.08.71-9.4.92C476.56,266.46,469.23,266.66,462.17,266.66Z"
            style="fill:#263238"></path>
        <path
            d="M445.19,258.81l0-1s36.89-.95,45.23-1.19c8-.23,10-1.13,10-1.14l.44.9c-.08,0-2.1,1-10.45,1.24S445.19,258.81,445.19,258.81Z"
            style="fill:#263238"></path>
        <path
            d="M445.05,305c-6.3-1.64-9.13-3.17-10.1-5.44-.85-2-.22-4.56,2.18-8.85l.87.49c-2.23,4-2.85,6.29-2.13,8,.82,1.92,3.55,3.33,9.44,4.87Z"
            style="fill:#263238"></path>
        <path d="M439.59,287.77l-.93-.37c3.29-8.22,4.58-20,4.6-20.1l1,.11C444.24,267.53,442.93,279.42,439.59,287.77Z"
            style="fill:#263238"></path>
        <path d="M500.14,198.58s-2.41-.16-7.85-.59l.08-1c5.43.43,7.83.59,7.83.59Z" style="fill:#263238"></path>
        <path
            d="M443.87,199.43a12.91,12.91,0,0,1-4.6-.89l.39-.92s4.35,1.79,7.67,0,10.95-3.49,29.08-2l10.62.88-.09,1-10.62-.88c-18.82-1.59-25.95.47-28.52,1.84A8.21,8.21,0,0,1,443.87,199.43Z"
            style="fill:#263238"></path>
        <path
            d="M426.56,208.55l-.37-.93c.29-.12,7.26-2.89,10.18-2.89a3.25,3.25,0,0,1,2.53.91,2.5,2.5,0,0,1,.59,1.78l-1-.11.49.06-.49-.05a1.49,1.49,0,0,0-.36-1,2.31,2.31,0,0,0-1.77-.57C433.65,205.73,426.63,208.52,426.56,208.55Z"
            style="fill:#263238"></path>
        <path d="M481.63,454.91s1.53,9.33,1.85,10.47,3.44,2.13,6.56,1.8,5.4-1,5.4-3.76-2-9.54-2-9.54Z"
            style="fill:#fff"></path>
        <path
            d="M488.84,467.75c-2.66,0-5.44-.83-5.84-2.23-.33-1.16-1.8-10.15-1.87-10.53l-.08-.53,12.77-1.11.11.39c.09.28,2,6.85,2,9.68,0,3.36-3,4-5.85,4.26C489.68,467.72,489.27,467.75,488.84,467.75Zm-6.63-12.39c.55,3.34,1.51,9.05,1.75,9.89s2.83,1.77,6,1.44,5-1,5-3.27-1.43-7.53-1.85-9Z"
            style="fill:#263238"></path>
    </g>
    <g id="freepik--character-1--inject-16" class="">
        <path
            d="M235.81,178.89a23.26,23.26,0,0,0,2.34,5c1.25,1.72,2.66,4.07,2.66,4.07s.47,3.75,1.1,11.57-4.38,27.39-4.38,27.39L233.93,246a49.23,49.23,0,0,0,11.26.31c5-.63,5.32-1.72,5.79-3.6s.94-24.57-.47-35.67-2.34-19.72-2.34-19.72a55,55,0,0,0,1.72-6.57V175.6Z"
            style="fill:#fff"></path>
        <path
            d="M241.3,247.05a55.47,55.47,0,0,1-7.45-.54.5.5,0,0,1-.33-.2.49.49,0,0,1-.08-.39l3.6-19.09c.05-.22,5-19.59,4.37-27.25-.56-7-1-10.79-1.08-11.45-.27-.44-1.5-2.44-2.58-3.94a23.78,23.78,0,0,1-2.42-5.14.51.51,0,0,1,0-.4.53.53,0,0,1,.32-.25l14.08-3.28a.5.5,0,0,1,.62.48v5.17a47.53,47.53,0,0,1-1.72,6.62c.12,1,1,9.27,2.34,19.6,1.43,11.27.94,33.95.46,35.86-.54,2.17-1.07,3.33-6.21,4A32.63,32.63,0,0,1,241.3,247.05Zm-6.78-1.46a47.71,47.71,0,0,0,10.61.24c4.71-.58,4.93-1.47,5.37-3.22s.89-24.65-.48-35.49c-1.39-11-2.34-19.64-2.35-19.73a.47.47,0,0,1,0-.2,48.94,48.94,0,0,0,1.7-6.42v-4.54l-12.93,3a20.8,20.8,0,0,0,2.1,4.35c1.25,1.72,2.67,4.09,2.68,4.11a.44.44,0,0,1,.07.19s.48,3.86,1.1,11.6-4.19,26.75-4.4,27.55Z"
            style="fill:#263238"></path>
        <path
            d="M243.94,186.9h0a.5.5,0,0,1-.48-.52,16,16,0,0,0-.29-4.2c-.45-1.37-1.37-3.37-1.38-3.39a.5.5,0,1,1,.9-.42c0,.08,1,2.07,1.43,3.49a16.34,16.34,0,0,1,.34,4.57A.5.5,0,0,1,243.94,186.9Z"
            style="fill:#263238"></path>
        <path
            d="M219.19,172.09s1.54,5,3.08,5.93,5.71,3.08,5,5.28a6.33,6.33,0,0,1-2.41,3.29s.65,7.92,0,11.21-3.74,2.42-7.26,2.64l-3.51.22L209.3,211l-19.12-9V176.92l29.89-6.81Z"
            style="fill:#fff"></path>
        <path
            d="M209.3,211.49a.5.5,0,0,1-.21-.05l-19.13-9a.5.5,0,0,1-.28-.45V176.92a.49.49,0,0,1,.39-.48L220,169.62a.53.53,0,0,1,.5.17.52.52,0,0,1,.07.52l-.81,1.81c.6,1.9,1.83,4.92,2.8,5.47l.29.16c1.86,1.05,5.73,3.24,5,5.69a6.93,6.93,0,0,1-2.37,3.4c.11,1.47.57,8,0,11.06s-3,3-5.62,3c-.68,0-1.38,0-2.1,0l-3.22.2-4.71,10.06a.48.48,0,0,1-.28.26A.47.47,0,0,1,209.3,211.49Zm-18.62-9.83,18.38,8.66,4.62-9.87a.5.5,0,0,1,.42-.29l3.52-.22c.75-.05,1.47,0,2.16,0,2.75,0,4.21-.09,4.64-2.2.63-3.18,0-11,0-11.07a.48.48,0,0,1,.23-.46,5.83,5.83,0,0,0,2.2-3c.51-1.68-3-3.67-4.52-4.52l-.3-.17c-1.66-1-3.14-5.69-3.31-6.23a.6.6,0,0,1,0-.35l.48-1.06-28.53,6.5Z"
            style="fill:#263238"></path>
        <path
            d="M221.74,190.88a4.76,4.76,0,0,1-4.09-2.29.5.5,0,1,1,.88-.48,3.77,3.77,0,0,0,3.89,1.72.51.51,0,0,1,.56.43.51.51,0,0,1-.42.57A5.91,5.91,0,0,1,221.74,190.88Z"
            style="fill:#263238"></path>
        <path d="M219.36,178.39c.23,1,0,1.91-.42,2s-1-.62-1.25-1.63,0-1.9.43-2S219.14,177.39,219.36,178.39Z"
            style="fill:#263238"></path>
        <path d="M214.14,200.66s-3.51-.77-4.9-1.78-3.53-2.65-3.53-2.65,2.4,5.94,3.15,7.2a21.45,21.45,0,0,0,2.53,3Z"
            style="fill:#263238"></path>
        <path
            d="M211.39,207a.51.51,0,0,1-.36-.15,20.77,20.77,0,0,1-2.59-3.12c-.77-1.29-3.1-7-3.2-7.27a.51.51,0,0,1,.16-.58.5.5,0,0,1,.61,0s2.14,1.63,3.53,2.64,4.67,1.68,4.7,1.69a.47.47,0,0,1,.34.27.5.5,0,0,1,0,.43l-2.75,5.8a.51.51,0,0,1-.37.28Zm-4.52-9.22c.76,1.84,1.94,4.64,2.42,5.43a17.67,17.67,0,0,0,2,2.42l2.17-4.59a15.61,15.61,0,0,1-4.47-1.71C208.32,198.83,207.54,198.25,206.87,197.74Z"
            style="fill:#263238"></path>
        <path
            d="M209.59,174.15s-1.26,5.48-2.8,6.88-3.93.84-4.91.28-4.77-1.82-6.59.14-2.95,7.29-.43,9.4,6,.14,6,.14a35.92,35.92,0,0,1-2.53,8.27c-2,4.49-8.13,6.6-9.4,8.28s-7.29,11.36-7.71,15.43-.14,19.36-.28,20.2-12.07.14-14.73-11.22,5.47-16.55,10.52-19.92,6.31-4.35,4.35-6.31-7.44-2.95-6.6-9.26S179,180.61,179,180.61Z"
            style="fill:#263238"></path>
        <path
            d="M179.86,243.92a15.2,15.2,0,0,1-14.1-11.86c-2.7-11.5,5.55-17,10.47-20.27l.26-.18c3-2,4.91-3.31,5-4.24,0-.22,0-.6-.74-1.3a10.5,10.5,0,0,0-1.91-1.33c-2.32-1.39-5.49-3.31-4.82-8.35.84-6.3,4.37-15.57,4.52-16a.47.47,0,0,1,.36-.31l30.58-6.45a.49.49,0,0,1,.46.13.51.51,0,0,1,.13.47c-.13.57-1.34,5.66-3,7.13-1.78,1.61-4.47.93-5.5.34-.85-.49-4.38-1.67-6,0a8.56,8.56,0,0,0-1.74,5.7,4.17,4.17,0,0,0,1.28,3c2.23,1.87,5.43.11,5.46.09a.51.51,0,0,1,.53,0,.48.48,0,0,1,.21.48,35.89,35.89,0,0,1-2.56,8.4c-1.35,3.09-4.57,5.08-6.92,6.54a11.4,11.4,0,0,0-2.54,1.84c-1.34,1.79-7.21,11.3-7.61,15.18-.27,2.56-.25,9.58-.24,14.7,0,3.5,0,5.2-.05,5.53-.09.56-.78.65-1.37.67ZM179.39,181c-.58,1.55-3.62,9.87-4.37,15.48-.58,4.4,2,6,4.35,7.36a11.54,11.54,0,0,1,2.1,1.48,2.73,2.73,0,0,1,1,2.11c-.14,1.38-1.86,2.59-5.44,5l-.26.17c-5,3.34-12.6,8.38-10,19.21a13.83,13.83,0,0,0,7.74,9.72,12,12,0,0,0,6,1.33c0-.7,0-2.87,0-5.16,0-5.14,0-12.19.24-14.8.45-4.34,6.79-14.31,7.81-15.68a11.14,11.14,0,0,1,2.82-2.09c2.23-1.39,5.3-3.28,6.52-6.09a37.88,37.88,0,0,0,2.32-7.23,5.65,5.65,0,0,1-5.69-.6,5,5,0,0,1-1.63-3.68,9.59,9.59,0,0,1,2-6.44c2-2.17,6-.93,7.21-.23.78.44,3,1,4.32-.22,1-.91,2-4,2.47-5.85Z"
            style="fill:#263238"></path>
        <path
            d="M177.87,181.76a128.13,128.13,0,0,0,19.34-2.86,244,244,0,0,0,31-8.79c9.45-3.52,7.91-8.57,7.26-9s-1.32-.66-4,0-15.83,3.73-15.83,3.73-3.95-10.55-6.81-13-12.31-2.64-19.34,0S176.77,158,176.11,162,177.87,181.76,177.87,181.76Z"
            style="fill:#263238"></path>
        <path
            d="M177.44,182.28l-.06-.45c-.1-.65-2.43-16-1.76-19.94.78-4.71,7.9-8.31,13.72-10.49,6.91-2.59,16.73-2.55,19.84.08,2.63,2.23,6,10.76,6.81,12.77,2.28-.54,13-3.05,15.39-3.64,2.62-.66,3.5-.5,4.35.07a2.9,2.9,0,0,1,.71,2.6c-.2,1.68-1.5,4.86-8.06,7.3a242.54,242.54,0,0,1-31.06,8.81,131.07,131.07,0,0,1-19.42,2.87Zm23-31.8a31.84,31.84,0,0,0-10.78,1.85c-7.88,3-12.53,6.42-13.09,9.73-.57,3.46,1.31,16.56,1.7,19.17a132.1,132.1,0,0,0,18.8-2.82A241.7,241.7,0,0,0,228,169.64c5.73-2.13,7.07-4.76,7.36-6.13a2.67,2.67,0,0,0-.23-2c-.42-.28-.88-.58-3.54.08s-15.7,3.71-15.83,3.74l-.43.1-.15-.41c0-.1-4-10.46-6.67-12.76C207.21,151.13,204.12,150.48,200.47,150.48Z"
            style="fill:#263238"></path>
        <path
            d="M206,175.22a.49.49,0,0,1-.48-.37.5.5,0,0,1,.35-.61c4.84-1.29,7.68-2.89,8.46-4.76a10.61,10.61,0,0,0,.85-4.6.5.5,0,0,1,1-.1,11.42,11.42,0,0,1-.91,5.08c-.92,2.21-3.91,4-9.13,5.35Z"
            style="fill:#263238"></path>
        <polygon points="212.66 215.07 237.53 226.93 233.93 249.3 223.44 244.29 209.99 214.72 212.66 215.07"
            style="fill:#263238"></polygon>
        <path
            d="M234.32,250l-11.26-5.37-13.9-30.56,3.72.51,25.2,12Zm-10.5-6.12,9.72,4.64L237,227.22l-24.45-11.66-1.7-.22Z"
            style="fill:#263238"></path>
        <path
            d="M223.53,333.21l-.54,30.6c-.18,10.2-1.25,31.5-2.86,42.77s-1.25,34-1.61,37.23-.18,4.65.36,5.36,7.69,10.38,10,11.46,8.86,2.32,8.77,3.76c-.18,2.68-3.4,2.68-3.94,2.68s-16.11.18-17.54.18-8.23-1.79-11.63-1.79-3.87-2.87-3.76-5c.36-7,4.12-10.92,4.48-15s1.25-8.06,0-22.37-2.87-25.24-2.87-33.65,2.51-21.47,2.51-21.47l-4.48-32.4Z"
            style="fill:#fff"></path>
        <path
            d="M216.19,467.75a30.8,30.8,0,0,1-3.75-.62,49.51,49.51,0,0,0-7.88-1.17,4,4,0,0,1-3.06-1.16,5.77,5.77,0,0,1-1.2-4.38,26,26,0,0,1,2.76-9.84,17.44,17.44,0,0,0,1.72-5.21c.05-.6.11-1.2.18-1.83.39-3.69.88-8.27-.18-20.45-.44-4.95-.92-9.59-1.35-13.67-.81-7.78-1.52-14.49-1.52-20,0-8,2.29-20.36,2.5-21.49L200,335.6a.49.49,0,0,1,.1-.37.47.47,0,0,1,.34-.19l23.09-2.33a.52.52,0,0,1,.39.13.53.53,0,0,1,.16.38l-.54,30.6c-.19,10.87-1.29,31.81-2.87,42.83-1.09,7.67-1.27,20.63-1.39,29.21-.06,4-.1,7-.21,8-.32,2.81-.24,4.36.26,5l.08.12c4.7,6.29,8.44,10.58,9.75,11.18a27.61,27.61,0,0,0,3.27,1.11c3.64,1.11,5.87,1.85,5.79,3.14-.14,2-1.79,3.15-4.44,3.15l-5.51.06ZM201,336l4.4,31.88a.43.43,0,0,1,0,.16c0,.13-2.5,13.11-2.5,21.38,0,5.48.7,12.16,1.51,19.91.43,4.09.92,8.73,1.35,13.69,1.08,12.28.58,16.92.19,20.65-.07.62-.13,1.21-.19,1.81A17.91,17.91,0,0,1,204,451a25.26,25.26,0,0,0-2.67,9.48,5.06,5.06,0,0,0,.93,3.65,3.06,3.06,0,0,0,2.33.84,50,50,0,0,1,8.08,1.19,31.6,31.6,0,0,0,3.55.6l12-.12,5.53-.06c1.23,0,3.31-.29,3.44-2.22-.1-.6-3.46-1.62-5.08-2.11a30.52,30.52,0,0,1-3.4-1.16c-2.05-.95-7.23-7.61-10.13-11.5l-.08-.11c-.68-.9-.81-2.55-.46-5.72.11-1,.15-4.05.21-7.91.12-8.6.3-21.6,1.4-29.33,1.57-11,2.67-31.86,2.86-42.71l.53-30Z"
            style="fill:#263238"></path>
        <path
            d="M218.34,446.81a22.67,22.67,0,0,1,.18-3c0-.49.09-1.43.12-2.71L205.78,440c-.14,2.16-.36,3.74-.5,5.33l13.06,1.47Z"
            style="fill:#263238"></path>
        <path
            d="M218.85,447.38l-14.11-1.6,0-.49c.06-.57.12-1.15.18-1.75.12-1.08.23-2.19.32-3.56l0-.51,13.83,1.17v.47c0,1.41-.07,2.29-.12,2.75a21.48,21.48,0,0,0-.18,2.95Zm-13-2.48,12,1.35c0-.7.07-1.53.18-2.5,0-.38.08-1.08.11-2.19l-11.88-1c-.09,1.18-.2,2.19-.29,3.1C205.91,444.07,205.87,444.49,205.83,444.9Z"
            style="fill:#263238"></path>
        <path
            d="M233.73,467.07c.54,0,3.76,0,3.94-2.68.09-1.44-6.45-2.69-8.77-3.76s-9.49-10.74-10-11.46a4,4,0,0,1-.54-2.36l-13.08-1.26c-.43,4.07-4.1,8-4.46,14.9-.11,2.14.36,5,3.76,5s10.2,1.79,11.63,1.79S233.19,467.07,233.73,467.07Z"
            style="fill:#bdbdbd"></path>
        <path
            d="M216.19,467.75a30.8,30.8,0,0,1-3.75-.62,49.51,49.51,0,0,0-7.88-1.17,4,4,0,0,1-3.06-1.16,5.77,5.77,0,0,1-1.2-4.38,26.21,26.21,0,0,1,2.75-9.84,17.58,17.58,0,0,0,1.71-5.08l.05-.49,14,1.35v.45a3.62,3.62,0,0,0,.44,2.06l.08.12c4.7,6.29,8.44,10.58,9.75,11.18a27.61,27.61,0,0,0,3.27,1.11c3.64,1.11,5.87,1.85,5.79,3.14-.14,2-1.79,3.15-4.44,3.15l-5.51.06Zm-10.5-21.65A21.71,21.71,0,0,1,204,451a25.26,25.26,0,0,0-2.67,9.48,5.06,5.06,0,0,0,.93,3.65,3.06,3.06,0,0,0,2.33.84,50,50,0,0,1,8.08,1.19,31.6,31.6,0,0,0,3.55.6l12-.12,5.53-.06c1.23,0,3.31-.29,3.44-2.22-.1-.6-3.47-1.62-5.08-2.11a30.52,30.52,0,0,1-3.4-1.16c-2.05-.95-7.23-7.61-10.13-11.5l-.08-.11a3.94,3.94,0,0,1-.63-2.2Z"
            style="fill:#263238"></path>
        <path
            d="M182.09,335.59l8.26,39.53s-5.5,10.26-7,18.51-1.51,32-3.26,38.28-7,23.27-7.25,26,7.75,3,9.75,4,14.26,4.75,17,4.75,8.25,0,7.75-1.5-5.5-3.25-8.5-6.5-8.26-15-8.51-17.26,12.26-37.53,14-43.53,8-19.52,7.51-23-1.76-39.53-1.76-39.53Z"
            style="fill:#fff"></path>
        <path
            d="M199.61,467.18c-2.86,0-15.19-3.78-17.24-4.8a16.4,16.4,0,0,0-3.15-.79c-3.32-.65-7.09-1.38-6.88-3.71.18-2,2.77-10.77,5.06-18.51.89-3,1.7-5.77,2.21-7.59.92-3.3,1.36-11.76,1.79-19.95.37-7.09.75-14.42,1.45-18.29,1.4-7.67,6.27-17.14,7-18.49l-8.22-39.36a.5.5,0,0,1,.49-.6l28-.25h0a.5.5,0,0,1,.5.48c0,.36,1.26,36,1.75,39.48.34,2.38-2.09,8.68-4.45,14.77-1.26,3.26-2.45,6.33-3.07,8.46s-2.52,7.72-4.73,14.23c-3.75,11-9.4,27.71-9.26,29.1.24,2.15,5.39,13.75,8.37,17a24.66,24.66,0,0,0,5.3,4c1.75,1.07,3,1.84,3.32,2.74a1,1,0,0,1-.14.93C207,467,204.17,467.18,199.61,467.18Zm-16.9-131.09L190.84,375a.51.51,0,0,1-.05.34c0,.1-5.48,10.28-6.95,18.36-.69,3.8-1.07,11.11-1.44,18.17-.43,8.23-.87,16.75-1.83,20.15-.51,1.83-1.32,4.58-2.21,7.62-2.16,7.31-4.85,16.41-5,18.31-.13,1.43,3.6,2.16,6.07,2.64a15.82,15.82,0,0,1,3.41.87c2,1,14.11,4.7,16.79,4.7,5.76,0,7.14-.44,7.29-.82-.19-.56-1.51-1.36-2.9-2.21a25.17,25.17,0,0,1-5.51-4.13c-3.12-3.38-8.37-15.18-8.64-17.55-.16-1.47,3.76-13.16,9.31-29.53,2.21-6.5,4.12-12.12,4.72-14.19s1.83-5.27,3.1-8.54c2.2-5.7,4.69-12.15,4.39-14.27-.47-3.31-1.58-34.6-1.74-39.09Z"
            style="fill:#263238"></path>
        <path
            d="M192.38,433.89l-12.22-2.24a2,2,0,0,1-.07.26c-.38,1.35-.92,3.21-1.54,5.31l12.19,2.2C191.09,438.08,191.66,436.17,192.38,433.89Z"
            style="fill:#263238"></path>
        <path
            d="M191.1,440l-13.18-2.38.15-.54c.62-2.1,1.16-3.95,1.54-5.3l.18-.7L193,433.5l-.17.54c-.76,2.4-1.31,4.25-1.64,5.51Zm-11.91-3.17,11.18,2c.32-1.14.77-2.68,1.37-4.57l-11.22-2C180.18,433.44,179.72,435,179.19,436.83Z"
            style="fill:#263238"></path>
        <path
            d="M199.61,466.68c2.75,0,8.25,0,7.75-1.5s-5.5-3.25-8.5-6.5-8.26-15-8.51-17.26a8.6,8.6,0,0,1,.39-2A49.68,49.68,0,0,1,178.61,437c-2.25,7.64-5.57,18.71-5.77,20.89-.25,2.75,7.75,3,9.75,4S196.85,466.68,199.61,466.68Z"
            style="fill:#bdbdbd"></path>
        <path
            d="M199.61,467.18c-2.86,0-15.19-3.78-17.24-4.8a16.4,16.4,0,0,0-3.15-.79c-3.32-.65-7.09-1.38-6.88-3.71.18-2,2.77-10.77,5.06-18.51l.87-3,.49.16a49.24,49.24,0,0,0,12,2.36l.61,0-.16.59a7.35,7.35,0,0,0-.37,1.81c.24,2.15,5.39,13.75,8.37,17a24.66,24.66,0,0,0,5.3,4c1.75,1.07,3,1.84,3.32,2.74a1,1,0,0,1-.14.93C207,467,204.17,467.18,199.61,467.18Zm-20.67-29.51-.58,2c-2.16,7.32-4.85,16.42-5,18.32-.13,1.43,3.6,2.16,6.07,2.64a15.82,15.82,0,0,1,3.41.87c2,1,14.11,4.7,16.79,4.7,5.76,0,7.14-.44,7.29-.82-.19-.56-1.51-1.36-2.9-2.21a25.17,25.17,0,0,1-5.51-4.13c-3.12-3.38-8.37-15.18-8.64-17.55a5.4,5.4,0,0,1,.25-1.59A50.56,50.56,0,0,1,178.94,437.67Z"
            style="fill:#263238"></path>
        <path d="M173.88,297.93s-2.15,10.21-1.88,14.51,5.91,21,5.91,21L215.54,335l10-1.08L224.07,304l-2.88-7.44Z"
            style="fill:#949494"></path>
        <path
            d="M215.59,335.52l-38-1.63-.11-.32c-.24-.69-5.67-16.78-5.94-21.1s1.8-14.23,1.89-14.65l.08-.38h.39l47.66-1.36,3,7.92,1.45,30.4Zm-37.32-2.6,37.29,1.6,9.4-1-1.39-29.38-2.72-7-46.56,1.33c-.39,1.89-2,10.27-1.8,14S177.49,330.58,178.27,332.92Z"
            style="fill:#263238"></path>
        <path
            d="M191.78,327.62a.5.5,0,0,1-.5-.44l-2.65-21.47a.5.5,0,0,1,.43-.56.5.5,0,0,1,.56.44l2.65,21.47a.5.5,0,0,1-.43.56Z"
            style="fill:#263238"></path>
        <rect x="175.49" y="329.38" width="44.35" height="9.95" style="fill:#949494"></rect>
        <path d="M220.34,339.82H175V328.88h45.35Zm-44.35-1h43.35v-8.94H176Z" style="fill:#263238"></path>
        <rect x="220.03" y="328.65" width="6.58" height="6.71" style="fill:#949494"></rect>
        <path d="M227.11,335.86h-7.58v-7.71h7.58Zm-6.58-1h5.58v-5.71h-5.58Z" style="fill:#263238"></path>
        <path
            d="M219.84,329.88a.5.5,0,0,1-.5-.48l-.59-13.63a.48.48,0,0,1,.17-.4l3.29-2.77a.5.5,0,0,1,.65.77L219.75,316l.59,13.37a.51.51,0,0,1-.48.53Z"
            style="fill:#263238"></path>
        <path
            d="M190.24,204.8s-5.21,6.52-7.63,12.29-2,19.18-2,21.73,2.28,27,2.28,27l-10.33,34.08a123.91,123.91,0,0,0,24.95,4.42,162.31,162.31,0,0,0,26.57-.26l-1.75-38.64s8.72-11,7.92-15.83-7.92-21.46-10.33-25-7.25-9.53-7.25-9.53Z"
            style="fill:#263238"></path>
        <path
            d="M208.94,305.2c-3.52,0-7.43-.11-11.47-.42a124.66,124.66,0,0,1-25.07-4.45l-.47-.14,10.44-34.46c-.17-1.92-2.27-24.43-2.27-26.91,0-.24,0-.58,0-1,0-4.27-.16-15.61,2.06-20.93,2.42-5.76,7.48-12.13,7.7-12.4l.24-.31L213,214.67l.07.09c0,.06,4.87,6.09,7.27,9.55,2.54,3.67,9.61,20.33,10.41,25.16s-6.81,14.68-7.9,16.07l1.76,38.92-.47.05C224,304.52,217.69,305.2,208.94,305.2Zm-35.76-5.68a126.6,126.6,0,0,0,24.36,4.26,163.32,163.32,0,0,0,26-.22l-1.73-38.34.12-.15c.09-.11,8.57-10.88,7.81-15.44s-7.83-21.27-10.24-24.75c-2.22-3.2-6.54-8.63-7.15-9.4l-22-10.06a61.46,61.46,0,0,0-7.32,11.86c-2.14,5.12-2,16.72-2,20.53,0,.42,0,.76,0,1,0,2.49,2.26,26.67,2.28,26.92v.09l0,.1Z"
            style="fill:#263238"></path>
        <polygon points="194.38 201.38 214.74 210.87 212.94 218.78 190.24 204.8 194.38 201.38" style="fill:#263238">
        </polygon>
        <path d="M213.28,219.58l-23.9-14.72,4.92-4.06,21,9.79ZM191.1,204.74,212.61,218l1.55-6.84L194.45,202Z"
            style="fill:#263238"></path>
        <path
            d="M215.52,248.09c-.68-10.9-8.86-33.2-12.43-37s-14.12-3.6-14.12-3.6-1.38.37-6.32,4.62-9.36,11.07-16.4,19.79-8.79,17.84-9.65,26.87,2.9,26.05,4.94,29.28,11.24,8.86,15.33,5.45,13.45-10.21,13.45-10.21a18.32,18.32,0,0,0,12.26-6C208.19,271.42,216.2,259,215.52,248.09ZM205.3,267.5c-3.06,5.28-12.43,11.58-12.43,11.58l-3.57,1.7-5.62,2.9a325.82,325.82,0,0,1,1.87-37.63c2.21-19.75,5.62-31.5,7-33.89s5.79,1.88,5.79,1.88,8,17.53,9.87,27.41S208.37,262.22,205.3,267.5Z"
            style="fill:#949494"></path>
        <path
            d="M173.59,295.11a9.72,9.72,0,0,1-1.48-.12c-4.26-.67-9.41-4.11-11-6.62-2.08-3.29-5.88-20.41-5-29.6.83-8.86,2.59-18.27,9.75-27.14,2.24-2.77,4.25-5.4,6-7.72,3.93-5.14,7-9.19,10.44-12.13,4.88-4.21,6.36-4.68,6.51-4.72l.13,0c.43,0,10.79-.1,14.48,3.76,3.87,4,11.9,26.63,12.57,37.26h0c.73,11.71-8.24,24.52-13.08,29.66a18.83,18.83,0,0,1-12.46,6.11c-1.13.83-9.52,7-13.29,10.1A5.42,5.42,0,0,1,173.59,295.11ZM189.06,208c-.27.11-1.81.82-6.08,4.5-3.32,2.87-6.4,6.89-10.29,12-1.79,2.32-3.8,5-6.05,7.74-7,8.66-8.72,17.9-9.54,26.6s2.89,25.86,4.86,29c1.27,2,6,5.49,10.31,6.16a5.21,5.21,0,0,0,4.28-.83c4-3.38,13.38-10.17,13.47-10.24l.13-.1h.17a18,18,0,0,0,11.89-5.8c4.74-5,13.52-17.54,12.81-28.91h0c-.68-10.91-8.94-33.11-12.29-36.63S190,208.05,189.06,208Zm-5.87,76.45v-.8a326.77,326.77,0,0,1,1.87-37.7c2.29-20.44,5.74-31.78,7-34.07a1.82,1.82,0,0,1,1.37-1c2-.28,4.88,2.41,5.2,2.72l.1.15c.08.17,8,17.7,9.92,27.53,2,10.43-.05,21.38-3,26.39-3.08,5.32-12.19,11.48-12.58,11.74l-3.64,1.74Zm10.61-72.55h-.19a.87.87,0,0,0-.65.46c-1.22,2.14-4.66,13.6-6.91,33.69a326.16,326.16,0,0,0-1.88,36.76l4.9-2.52,3.59-1.71s9.24-6.26,12.21-11.38h0c2.82-4.85,4.77-15.51,2.83-25.71-1.77-9.34-9.18-25.85-9.8-27.21C197.11,213.59,195.08,211.94,193.8,211.94Z"
            style="fill:#263238"></path>
        <path
            d="M180.6,238.82s-11.4,32.26-13.27,39.07,2,14.3,4.94,14.13,7.49-5.45,8.17-8.17S184.19,244,184.19,244,184.34,231.42,180.6,238.82Z"
            style="fill:#575757"></path>
        <path
            d="M172.17,292.52a4.06,4.06,0,0,1-2.92-1.79,15.54,15.54,0,0,1-2.4-13C168.7,271,180,239,180.13,238.65l0-.06c1-2,1.84-2.78,2.69-2.57,1.75.42,1.87,5.73,1.85,8-.13,1.55-3.08,37.23-3.76,40s-5.43,8.36-8.63,8.55ZM181.06,239c-.41,1.16-11.43,32.38-13.25,39A14.43,14.43,0,0,0,170,290.1a3.08,3.08,0,0,0,2.21,1.42c2.69-.16,7.08-5.27,7.72-7.8s3.7-39.39,3.73-39.76c0-3.48-.48-6.82-1.09-7C182.6,237,182.12,236.93,181.06,239Z"
            style="fill:#263238"></path>
        <path
            d="M156.6,258.82a31.86,31.86,0,0,0,7.67,2.72,40.08,40.08,0,0,0,6.47.68l3.4-10.9s-6.13,1.2-9.7.52-6.3-2.9-7-1.37S156.6,257.28,156.6,258.82Z"
            style="fill:#575757"></path>
        <path
            d="M171.1,262.72h-.36a40.32,40.32,0,0,1-6.56-.69,32,32,0,0,1-7.81-2.77l-.27-.14v-.3c0-1.38.16-6.88.9-8.55.61-1.37,2.14-.77,3.91-.08a19.74,19.74,0,0,0,3.62,1.15c3.43.66,9.46-.49,9.52-.51l.82-.16Zm-14-4.21a30.92,30.92,0,0,0,7.25,2.54,41.11,41.11,0,0,0,6,.66l3-9.75c-1.81.3-6.19.92-9.08.37a21.55,21.55,0,0,1-3.8-1.21c-1.67-.66-2.43-.9-2.63-.44C157.33,252,157.13,256.58,157.11,258.51Z"
            style="fill:#263238"></path>
        <path
            d="M186.2,253.53s.16,24.09,1.26,27.85,18.93,40.84,18.93,40.84-.63,4.85.94,7.2,3.13,5.16,3.13,5.16-1.88-.31-1.41,1.41,2.5,3.44,3.44,3.13,4.07-.94,4.07-.94a2.57,2.57,0,0,0,2.66-.47c1.56-1.1,1.56-3.6.63-7s-8.14-11.74-8.14-11.74l-11.58-39.12-.31-26.44Z"
            style="fill:#fff"></path>
        <path
            d="M212.25,339.65a2.29,2.29,0,0,1-1.07-.31,5.74,5.74,0,0,1-2.61-3.22,1.56,1.56,0,0,1,.24-1.57,1.45,1.45,0,0,1,.81-.44c-.57-1-1.64-2.82-2.71-4.42-1.51-2.26-1.13-6.52-1-7.39-1.35-2.79-17.83-37.1-18.9-40.78s-1.27-27-1.28-28a.5.5,0,0,1,.5-.5l13.61-.16a.5.5,0,0,1,.51.5l.31,26.37,11.53,38.95c.8.92,7.25,8.48,8.17,11.85,1.09,4,.83,6.42-.82,7.58a3.22,3.22,0,0,1-3,.58c-.63.13-3.07.63-3.85.89A1.29,1.29,0,0,1,212.25,339.65Zm-2.11-4.59a.88.88,0,0,0-.59.16c-.13.14-.07.46,0,.64a4.81,4.81,0,0,0,2.13,2.6.94.94,0,0,0,.67.18c1-.32,4-.93,4.13-.95a.48.48,0,0,1,.35.05s.86.44,2.12-.44,1.39-3,.43-6.5c-.9-3.3-8-11.46-8-11.54a.44.44,0,0,1-.1-.19L199.65,280a.68.68,0,0,1,0-.14l-.31-25.94-12.61.14c0,3.46.25,23.87,1.23,27.22,1.07,3.67,18.72,40.39,18.9,40.76a.56.56,0,0,1,0,.28c0,.05-.59,4.7.85,6.86,1.56,2.34,3.14,5.17,3.15,5.2a.49.49,0,0,1,0,.53.49.49,0,0,1-.49.2Z"
            style="fill:#263238"></path>
        <path
            d="M191.06,210.34a10.34,10.34,0,0,0-8.14,4.38c-3.29,4.54-3.13,40.53-3.13,40.53l26.76.31s.15-26.29-2.66-33.8-4.54-9.85-8-10.64"
            style="fill:#263238"></path>
        <path
            d="M207,256.07l-27.75-.33v-.49c0-1.48-.12-36.2,3.22-40.82a10.77,10.77,0,0,1,8.56-4.59l0,1a9.91,9.91,0,0,0-7.72,4.18c-2.49,3.44-3.07,27.2-3,39.73l25.76.31c0-3.68-.09-26.35-2.63-33.12-2.77-7.38-4.41-9.6-7.63-10.33l.23-1c3.63.82,5.42,3.18,8.33,11,2.82,7.51,2.7,32.9,2.7,34Z"
            style="fill:#263238"></path>
        <rect x="225.7" y="173.27" width="5.04" height="9.08" transform="translate(101.62 437.95) rotate(-101.97)"
            style="fill:#263238"></rect>
        <path
            d="M224.31,181.72a.49.49,0,0,1-.49-.4l-1-4.93a.51.51,0,0,1,.07-.38.52.52,0,0,1,.32-.22l8.87-1.88a.52.52,0,0,1,.6.39l1,4.93a.47.47,0,0,1-.07.38.5.5,0,0,1-.31.22l-8.88,1.88Zm-.46-5.05.84,4,7.9-1.68-.84-4Z"
            style="fill:#263238"></path>
        <polygon points="254.64 166.56 256.86 177.05 232.51 181.43 230.67 172.76 254.64 166.56" style="fill:#263238">
        </polygon>
        <path
            d="M232.51,181.93a.5.5,0,0,1-.49-.4l-1.84-8.66a.51.51,0,0,1,.36-.59l24-6.2a.44.44,0,0,1,.39.06.48.48,0,0,1,.23.32l2.22,10.48a.53.53,0,0,1-.07.39.49.49,0,0,1-.33.21l-24.35,4.38Zm-1.25-8.8,1.64,7.72,23.37-4.2-2-9.47Z"
            style="fill:#263238"></path>
        <rect x="219.51" y="177.13" width="7.63" height="3.44" transform="translate(94.7 434.42) rotate(-101.97)"
            style="fill:#263238"></rect>
        <path
            d="M222.43,183.44a.5.5,0,0,1-.49-.4l-1.58-7.46a.51.51,0,0,1,.07-.38.45.45,0,0,1,.31-.21l3.37-.72a.5.5,0,0,1,.59.39l1.59,7.46a.57.57,0,0,1-.07.38.51.51,0,0,1-.32.21l-3.37.72Zm-1-7.58,1.38,6.48,2.39-.5-1.38-6.49Z"
            style="fill:#263238"></path>
    </g>
    <g id="freepik--plants-2--inject-16" class="">
        <path
            d="M195.85,463.48s.47-2.37,1.42-6.64-8.06-1.42-8.06-1.42.95-10.44.17-12.44-9.66,17.18-9.66,17.18.48-6.17-2.84-8.54-5.69,10.44-5.69,10.44-1.9-3.32-2.23-9.94c-.26-5.09-8.91-2.36-12.88-.83,5.72-2.46,22.16-10.29,24.12-20.06,2.37-11.86-35.32,9-35.32,9s17.77-12.83,18.24-20.42-15.27,6.81-15.27,6.81,2.47-21-3.22-24.35S132.29,427,132.29,427s-1.89-10-5.21-12.33c-.94-.67-1.68.91-2.27,3.52-.59-2.61-1.34-4.19-2.27-3.52C119.22,417,117.32,427,117.32,427S110.68,399,105,402.3s-3.23,24.35-3.23,24.35S86,412.26,86.5,419.84s18.24,20.42,18.24,20.42-37.69-20.89-35.32-9c2,9.77,18.4,17.6,24.12,20.06-4-1.53-12.63-4.26-12.88.83-.33,6.62-2.23,9.94-2.23,9.94s-2.37-12.81-5.69-10.44-2.84,8.54-2.84,8.54S61,441,60.23,443s.18,12.44.18,12.44-9-2.85-8.06,1.42,1.42,6.64,1.42,6.64L42.39,468.7H207.23Z"
            style="fill:#263238"></path>
        <path
            d="M540.94,462.79s-4.55-18.61.68-23.23,16.2,8.88,16.2,8.88S546,407.09,553.6,404.55,568,414.68,568,414.68s1.69-46.42,7.59-42.2,9.29,21.95,9.29,21.95,11.81-49.8,21.94-43.89,5.75,43.34,5.75,43.34,28-25.62,27.17-12.11-32.46,36.32-32.46,36.32,67.06-37.17,62.84-16.07-46.42,37.14-46.42,37.14,25.83-11.72,26.42,0,4,17.67,4,17.67,4.21-22.79,10.12-18.57,5.07,15.19,5.07,15.19,15.81-34.13,17.19-30.57-.31,22.13-.31,22.13,16-5.06,14.34,2.54-2.53,11.81-2.53,11.81l20.26,9.29H521.53Z"
            style="fill:#263238"></path>
        <path
            d="M544.44,462.76a.4.4,0,0,0,.23-.51,52.84,52.84,0,0,0-38-34.88.41.41,0,0,0-.5.31.43.43,0,0,0,.31.5,52,52,0,0,1,37.38,34.32.42.42,0,0,0,.53.27Z"
            style="fill:#263238"></path>
        <path
            d="M530.49,451.63c3.92-3.25,10.14,2.13,10,2.32.44.76.86,1.53,1.27,2.31-.87-.79-3.71-1.24-7.46-.41S526.64,454.58,530.49,451.63Z"
            style="fill:#263238"></path>
        <path
            d="M542.24,442.78c4-3,5.9,3.57,3.32,6.65s-3.75,5.64-3.7,6.8c-.35-.81-.72-1.61-1.11-2.39C541,453.81,538.6,445.81,542.24,442.78Z"
            style="fill:#263238"></path>
        <path
            d="M525.45,446c3.33-3.85,10.31.34,10.24.53.56.66,1.1,1.34,1.62,2-1-.62-3.85-.56-7.39.91S522.15,449.56,525.45,446Z"
            style="fill:#263238"></path>
        <path
            d="M535.55,435.3c3.4-3.66,6.38,2.49,4.34,5.94-1.88,3.46-2.76,6.16-2.52,7.28-.48-.73-1-1.44-1.48-2.14C536.08,446.33,532.47,438.9,535.55,435.3Z"
            style="fill:#263238"></path>
        <path
            d="M519.57,441.31c2.64-4.35,10.2-1.4,10.16-1.2q1,.83,1.92,1.71c-1.06-.44-3.87.11-7.11,2.15S516.91,445.37,519.57,441.31Z"
            style="fill:#263238"></path>
        <path
            d="M527.74,429.08c2.74-4.18,6.69,1.37,5.25,5.11s-1.71,6.52-1.29,7.58c-.58-.63-1.18-1.25-1.8-1.85C530.08,439.85,525.31,433.15,527.74,429.08Z"
            style="fill:#263238"></path>
        <path
            d="M513,437.66c1.88-4.72,9.83-3.07,9.83-2.87.73.43,1.46.89,2.17,1.36-1.12-.25-3.79.76-6.64,3.32S511,442.12,513,437.66Z"
            style="fill:#263238"></path>
        <path
            d="M519,424.24c2-4.58,6.85.24,6,4.17-.65,3.88-.6,6.71,0,7.68-.68-.52-1.37-1-2.08-1.51C523.11,434.47,517.27,428.66,519,424.24Z"
            style="fill:#263238"></path>
        <path
            d="M505.81,435.16c1.06-5,9.24-4.66,9.26-4.47.8.31,1.6.64,2.38,1-1.14-.07-3.62,1.37-6,4.37S504.65,439.88,505.81,435.16Z"
            style="fill:#263238"></path>
        <path
            d="M509.46,420.91c1.2-4.85,6.85-.89,6.72,3.12,0,3.94.56,6.72,1.3,7.58-.76-.4-1.53-.78-2.31-1.15C515.33,430.33,508.53,425.56,509.46,420.91Z"
            style="fill:#263238"></path>
        <path
            d="M510.42,428.8c.12-.06-6.06-4.22-10.08-4.87s-5.43,2-4.78,3.63,3.38,2.06,5.72,1.92C503.58,429.16,510.39,428.68,510.42,428.8Z"
            style="fill:#263238"></path>
        <path
            d="M510.53,429.06l0,0a.28.28,0,0,0,.14-.29v0a.19.19,0,0,0-.14-.16c-1-1-6.71-4.35-10.16-4.91a4.58,4.58,0,0,0-4.54,1.21,2.84,2.84,0,0,0-.55,2.81c.85,2.22,4.81,2.16,6,2.09,2.24-.31,8.44-.74,9-.7A.23.23,0,0,0,510.53,429.06Zm-13.07-4.7a4.92,4.92,0,0,1,2.83-.16c3.17.52,7.65,3.21,9.29,4.32-.58,0-1.48.08-2.9.18-1.82.13-4.2.34-5.43.51-2.25.13-4.87-.26-5.43-1.75a2.28,2.28,0,0,1,.45-2.24A3.12,3.12,0,0,1,497.46,424.36Z"
            style="fill:#263238"></path>
        <path
            d="M548.76,463.75a.64.64,0,0,0,.64-.6,82,82,0,0,0-33.8-72.49.64.64,0,0,0-.9.15.65.65,0,0,0,.15.9,80.68,80.68,0,0,1,33.26,71.34.66.66,0,0,0,.6.7Z"
            style="fill:#263238"></path>
        <path
            d="M535.36,439.53c7.54-2.33,13.26,9.07,13,9.28.19,1.35.33,2.7.45,4.06-.77-1.65-4.58-4-10.45-5C532.6,446.65,528.08,441.48,535.36,439.53Z"
            style="fill:#263238"></path>
        <path
            d="M557.44,433.81c7.48-2,6.35,8.61.81,11.49-5.32,3-8.7,5.87-9.32,7.57,0-1.37-.08-2.74-.17-4.1C549.06,448.85,550.42,436,557.44,433.81Z"
            style="fill:#263238"></path>
        <path
            d="M531.47,428.48c7-3.55,14.57,6.59,14.36,6.83.4,1.28.78,2.56,1.12,3.86-1-1.46-5.18-3.08-11.13-3.07C529.93,435.91,524.63,431.63,531.47,428.48Z"
            style="fill:#263238"></path>
        <path
            d="M552.28,419.13c7-3.24,7.67,7.33,2.7,11.08-4.75,3.84-7.6,7.19-7.92,8.94-.25-1.32-.54-2.64-.85-3.94C546.51,435.25,545.73,422.46,552.28,419.13Z"
            style="fill:#263238"></path>
        <path
            d="M525.81,418.28c6.36-4.67,15.45,4,15.28,4.29.61,1.18,1.19,2.38,1.74,3.59-1.26-1.26-5.61-2.13-11.46-1.12C525.53,425.85,519.6,422.53,525.81,418.28Z"
            style="fill:#263238"></path>
        <path
            d="M544.77,405.58c6.39-4.37,8.77,5.93,4.49,10.44-4,4.57-6.3,8.33-6.33,10.1-.46-1.25-1-2.49-1.49-3.72C541.75,422.4,538.87,410,544.77,405.58Z"
            style="fill:#263238"></path>
        <path
            d="M518.52,409.15c5.49-5.67,15.92,1.42,15.79,1.69.8,1.06,1.57,2.15,2.31,3.25-1.45-1-5.88-1.16-11.48.82C519.52,416.68,513.11,414.39,518.52,409.15Z"
            style="fill:#263238"></path>
        <path
            d="M535.08,393.45c5.58-5.37,9.66,4.41,6.19,9.57-3.22,5.18-4.82,9.26-4.55,11-.67-1.15-1.36-2.29-2.09-3.41C534.94,410.58,530,398.78,535.08,393.45Z"
            style="fill:#263238"></path>
        <path
            d="M509.72,401.31c4.47-6.51,16-1.21,15.93-.92,1,.92,1.91,1.86,2.83,2.83-1.6-.78-6-.18-11.2,2.71C512,408.61,505.28,407.39,509.72,401.31Z"
            style="fill:#263238"></path>
        <path
            d="M523.39,383.05c4.6-6.24,10.35,2.77,7.8,8.45-2.3,5.66-3.19,10-2.63,11.64-.85-1-1.73-2-2.63-3C526.23,400,519.31,389.16,523.39,383.05Z"
            style="fill:#263238"></path>
        <path
            d="M520.1,394.93c.21,0-6.18-9.64-11.56-13-5.19-3.41-9-.33-9,2.38s3.64,5,7.07,6.15C510.09,391.4,520.13,394.74,520.1,394.93Z"
            style="fill:#263238"></path>
        <path
            d="M520.1,395.36h.06a.44.44,0,0,0,.37-.34v0a.3.3,0,0,0-.1-.33c-.86-1.95-7-10.19-11.66-13-2.56-1.69-5.19-2-7.23-.95a4.4,4.4,0,0,0-2.44,3.69c-.1,3.68,5.61,5.95,7.36,6.55,3.4.88,12.54,3.93,13.36,4.35A.43.43,0,0,0,520.1,395.36Zm-16-14.47a7.64,7.64,0,0,1,4.16,1.44c4.24,2.62,9.06,9.13,10.76,11.69-.85-.31-2.18-.76-4.26-1.45-2.69-.89-6.23-2-8.1-2.49-3.29-1.14-6.82-3.25-6.75-5.72a3.51,3.51,0,0,1,2-2.94A4.6,4.6,0,0,1,504.15,380.89Z"
            style="fill:#263238"></path>
    </g>

</svg>