<?xml version="1.0" standalone="no"?>
<!DOCTYPE svg PUBLIC "-//W3C//DTD SVG 20010904//EN"
 "http://www.w3.org/TR/2001/REC-SVG-20010904/DTD/svg10.dtd">
<svg version="1.0" xmlns="http://www.w3.org/2000/svg"
 width="48.000000pt" height="48.000000pt" viewBox="0 0 48.000000 48.000000"
 preserveAspectRatio="xMidYMid meet">

<g transform="translate(0.000000,48.000000) scale(0.100000,-0.100000)"
fill="#000000" stroke="none">
<path d="M162 418 c-7 -7 -12 -20 -12 -30 0 -14 -8 -18 -34 -18 -49 0 -66 -22
-66 -81 0 -68 30 -99 95 -99 31 0 47 -5 51 -15 8 -20 80 -21 87 -1 4 9 25 15
61 18 l56 3 0 -57 0 -58 -159 0 -160 0 -3 48 c-4 60 -22 61 -26 1 -5 -76 3
-79 188 -79 131 0 161 3 174 16 13 12 16 40 16 144 0 145 -6 160 -66 160 -26
0 -34 4 -34 18 0 32 -22 42 -90 42 -38 0 -71 -5 -78 -12z m138 -48 c0 -29 1
-30 50 -30 l50 0 0 -48 c0 -26 -5 -53 -12 -60 -18 -18 -97 -15 -104 3 -4 10
-20 15 -44 15 -24 0 -40 -5 -44 -15 -7 -18 -86 -21 -104 -3 -7 7 -12 34 -12
60 l0 48 90 0 c73 0 90 3 90 15 0 11 -11 15 -40 15 -29 0 -40 4 -40 15 0 12
13 15 60 15 l60 0 0 -30z m-50 -165 c0 -8 -4 -15 -10 -15 -5 0 -10 7 -10 15 0
8 5 15 10 15 6 0 10 -7 10 -15z"/>
</g>
</svg>
