<?xml version="1.0" standalone="no"?>
<!DOCTYPE svg PUBLIC "-//W3C//DTD SVG 20010904//EN"
 "http://www.w3.org/TR/2001/REC-SVG-20010904/DTD/svg10.dtd">
<svg version="1.0" xmlns="http://www.w3.org/2000/svg"
 width="48.000000pt" height="48.000000pt" viewBox="0 0 48.000000 48.000000"
 preserveAspectRatio="xMidYMid meet">

<g transform="translate(0.000000,48.000000) scale(0.100000,-0.100000)"
fill="#000000" stroke="none">
<path d="M162 400 c-13 -24 -24 -30 -50 -30 -43 0 -72 -30 -72 -75 0 -24 5
-35 15 -35 10 0 15 10 15 28 0 37 17 52 57 52 27 0 37 6 51 30 15 26 22 30 62
30 40 0 48 -4 63 -30 14 -24 25 -30 51 -30 19 0 38 -6 44 -13 6 -7 12 -46 14
-87 4 -101 22 -96 26 7 2 72 0 85 -18 103 -11 11 -33 20 -49 20 -21 0 -36 8
-51 30 -20 28 -26 30 -81 30 -56 0 -61 -2 -77 -30z"/>
<path d="M179 281 c-20 -20 -29 -39 -29 -61 0 -43 47 -90 90 -90 43 0 90 47
90 90 0 43 -47 90 -90 90 -22 0 -41 -9 -61 -29z m101 -21 c25 -25 25 -55 0
-80 -11 -11 -29 -20 -40 -20 -26 0 -60 34 -60 60 0 11 9 29 20 40 11 11 29 20
40 20 11 0 29 -9 40 -20z"/>
<path d="M40 160 c0 -108 3 -110 200 -110 147 0 162 2 180 20 22 22 27 60 7
60 -7 0 -17 -10 -22 -22 -10 -22 -15 -23 -159 -26 -101 -2 -153 1 -162 9 -9 8
-14 33 -14 75 0 50 -3 64 -15 64 -12 0 -15 -14 -15 -70z"/>
</g>
</svg>
