<?xml version="1.0" standalone="no"?>
<!DOCTYPE svg PUBLIC "-//W3C//DTD SVG 20010904//EN"
 "http://www.w3.org/TR/2001/REC-SVG-20010904/DTD/svg10.dtd">
<svg version="1.0" xmlns="http://www.w3.org/2000/svg"
 width="48.000000pt" height="48.000000pt" viewBox="0 0 48.000000 48.000000"
 preserveAspectRatio="xMidYMid meet">

<g transform="translate(0.000000,48.000000) scale(0.100000,-0.100000)"
fill="#000000" stroke="none">
<path d="M67 402 c-23 -25 -24 -142 -2 -142 9 0 15 9 15 25 l0 25 145 0 c122
0 145 2 145 15 0 13 -23 15 -146 15 -145 0 -145 0 -142 23 3 22 5 22 158 22
l155 0 5 -105 c6 -135 24 -134 28 1 4 143 10 139 -188 139 -139 0 -159 -2
-173 -18z"/>
<path d="M227 205 c-20 -91 -21 -95 -4 -95 9 0 20 27 30 75 20 91 21 95 4 95
-9 0 -20 -27 -30 -75z"/>
<path d="M142 227 c-12 -13 -22 -28 -22 -33 0 -14 43 -54 58 -54 17 0 15 25
-3 40 -14 12 -14 15 0 30 36 39 3 56 -33 17z"/>
<path d="M290 238 c0 -6 7 -19 15 -28 14 -15 14 -18 0 -30 -19 -15 -20 -40 -2
-40 15 0 57 41 57 56 0 14 -43 54 -58 54 -7 0 -12 -5 -12 -12z"/>
<path d="M57 234 c-4 -4 -7 -37 -7 -74 0 -99 2 -100 192 -100 137 0 157 2 171
18 21 23 22 62 3 62 -8 0 -16 -10 -18 -22 -3 -23 -5 -23 -158 -23 l-155 0 -3
65 c-3 63 -11 87 -25 74z"/>
</g>
</svg>
