<?xml version="1.0" standalone="no"?>
<!DOCTYPE svg PUBLIC "-//W3C//DTD SVG 20010904//EN"
 "http://www.w3.org/TR/2001/REC-SVG-20010904/DTD/svg10.dtd">
<svg version="1.0" xmlns="http://www.w3.org/2000/svg"
 width="48.000000pt" height="48.000000pt" viewBox="0 0 48.000000 48.000000"
 preserveAspectRatio="xMidYMid meet">

<g transform="translate(0.000000,48.000000) scale(0.100000,-0.100000)"
fill="#000000" stroke="none">
<path d="M179 401 c-54 -8 -95 -32 -104 -61 -11 -34 4 -37 28 -7 27 34 107 49
191 38 68 -9 83 -22 106 -92 19 -54 40 -76 40 -41 0 60 -55 148 -97 156 -59
10 -120 13 -164 7z"/>
<path d="M310 305 c0 -8 7 -15 15 -15 8 0 15 7 15 15 0 8 -7 15 -15 15 -8 0
-15 -7 -15 -15z"/>
<path d="M140 295 c0 -8 -7 -15 -15 -15 -8 0 -15 -7 -15 -15 0 -8 7 -15 15
-15 8 0 15 -7 15 -15 0 -8 7 -15 15 -15 8 0 15 7 15 15 0 8 7 15 15 15 8 0 15
7 15 15 0 8 -7 15 -15 15 -8 0 -15 7 -15 15 0 8 -7 15 -15 15 -8 0 -15 -7 -15
-15z"/>
<path d="M270 265 c0 -8 7 -15 15 -15 8 0 15 7 15 15 0 8 -7 15 -15 15 -8 0
-15 -7 -15 -15z"/>
<path d="M350 265 c0 -8 7 -15 15 -15 8 0 15 7 15 15 0 8 -7 15 -15 15 -8 0
-15 -7 -15 -15z"/>
<path d="M36 248 c-12 -45 -6 -133 10 -156 25 -36 59 -28 112 28 39 41 54 50
82 50 28 0 43 -9 82 -50 49 -52 84 -64 107 -36 17 21 25 82 12 90 -11 7 -15 1
-25 -47 -9 -39 -28 -34 -79 23 -43 48 -47 50 -97 50 -50 0 -54 -2 -97 -50 -25
-28 -51 -50 -59 -50 -20 0 -28 43 -20 111 4 46 3 59 -8 59 -8 0 -16 -10 -20
-22z"/>
<path d="M310 225 c0 -8 7 -15 15 -15 8 0 15 7 15 15 0 8 -7 15 -15 15 -8 0
-15 -7 -15 -15z"/>
</g>
</svg>
