<?xml version="1.0" standalone="no"?>
<!DOCTYPE svg PUBLIC "-//W3C//DTD SVG 20010904//EN"
 "http://www.w3.org/TR/2001/REC-SVG-20010904/DTD/svg10.dtd">
<svg version="1.0" xmlns="http://www.w3.org/2000/svg"
 width="48.000000pt" height="48.000000pt" viewBox="0 0 48.000000 48.000000"
 preserveAspectRatio="xMidYMid meet">

<g transform="translate(0.000000,48.000000) scale(0.100000,-0.100000)"
fill="#000000" stroke="none">
<path d="M45 386 c-54 -54 -15 -136 65 -136 l40 0 0 -66 c0 -36 5 -74 11 -85
10 -19 8 -20 -28 -17 l-38 3 -3 78 c-2 56 -6 77 -15 74 -20 -6 -21 -134 -2
-164 14 -21 22 -24 68 -21 57 3 54 -3 41 89 -5 33 -3 37 20 43 19 5 28 15 32
35 7 34 72 81 113 81 16 0 36 9 46 20 10 11 31 20 47 20 18 0 28 5 28 15 0 10
-10 15 -28 15 -16 0 -37 9 -47 20 -15 16 -31 20 -87 20 -54 0 -68 -3 -68 -15
0 -9 9 -15 25 -15 22 0 25 -4 25 -34 0 -50 -31 -66 -129 -66 -83 0 -111 12
-111 48 0 37 18 47 92 52 40 3 73 10 73 15 0 6 -33 11 -73 13 -66 3 -74 1 -97
-22z m330 -31 c0 -14 -8 -21 -27 -23 -24 -3 -28 0 -28 23 0 23 4 26 28 23 19
-2 27 -9 27 -23z m-165 -125 c0 -11 -7 -20 -15 -20 -8 0 -15 9 -15 20 0 11 7
20 15 20 8 0 15 -9 15 -20z"/>
<path d="M90 331 c0 -13 30 -22 51 -16 31 10 21 25 -16 25 -19 0 -35 -4 -35
-9z"/>
</g>
</svg>
