<?xml version="1.0" standalone="no"?>
<!DOCTYPE svg PUBLIC "-//W3C//DTD SVG 20010904//EN"
 "http://www.w3.org/TR/2001/REC-SVG-20010904/DTD/svg10.dtd">
<svg version="1.0" xmlns="http://www.w3.org/2000/svg"
 width="48.000000pt" height="48.000000pt" viewBox="0 0 48.000000 48.000000"
 preserveAspectRatio="xMidYMid meet">

<g transform="translate(0.000000,48.000000) scale(0.100000,-0.100000)"
fill="#000000" stroke="none">
<path d="M293 396 c-51 -13 -99 -29 -108 -36 -11 -9 -15 -33 -15 -102 0 -85
-1 -89 -20 -83 -27 9 -26 -12 3 -35 18 -15 20 -22 11 -37 -25 -41 -91 -21 -79
25 5 19 2 23 -12 20 -30 -5 -28 -52 3 -77 34 -26 64 -27 97 -1 24 19 26 28 29
108 l3 87 69 15 c38 8 71 21 74 28 5 16 -29 15 -96 -2 l-53 -15 3 27 c3 24 10
28 96 48 l92 21 0 -88 0 -88 -33 6 c-23 3 -39 -1 -60 -17 -35 -27 -35 -62 -1
-89 34 -27 64 -27 98 0 26 20 26 21 26 165 0 167 13 154 -127 120z m88 -222
c18 -22 -1 -49 -36 -49 -35 0 -54 27 -36 49 8 9 24 16 36 16 12 0 28 -7 36
-16z"/>
</g>
</svg>
