<?xml version="1.0" standalone="no"?>
<!DOCTYPE svg PUBLIC "-//W3C//DTD SVG 20010904//EN"
 "http://www.w3.org/TR/2001/REC-SVG-20010904/DTD/svg10.dtd">
<svg version="1.0" xmlns="http://www.w3.org/2000/svg"
 width="48.000000pt" height="48.000000pt" viewBox="0 0 48.000000 48.000000"
 preserveAspectRatio="xMidYMid meet">

<g transform="translate(0.000000,48.000000) scale(0.100000,-0.100000)"
fill="#000000" stroke="none">
<path d="M56 404 c-23 -22 -23 -194 -1 -194 12 0 15 17 15 90 l0 90 140 0 140
0 0 -35 c0 -24 5 -35 15 -35 21 0 20 64 -1 84 -23 23 -285 23 -308 0z"/>
<path d="M410 225 c0 -113 -2 -135 -15 -135 -12 0 -15 18 -15 100 0 82 -3 100
-15 100 -12 0 -15 -18 -15 -100 l0 -101 -137 3 -138 3 -5 33 c-7 43 -24 46
-28 4 -2 -22 3 -41 14 -53 16 -17 33 -19 185 -19 139 0 170 3 183 16 23 23 24
284 1 284 -13 0 -15 -22 -15 -135z"/>
<path d="M100 315 c0 -12 19 -15 110 -15 91 0 110 3 110 15 0 12 -19 15 -110
15 -91 0 -110 -3 -110 -15z"/>
<path d="M100 200 l0 -50 50 0 50 0 0 50 0 50 -50 0 -50 0 0 -50z m70 0 c0
-13 -7 -20 -20 -20 -13 0 -20 7 -20 20 0 13 7 20 20 20 13 0 20 -7 20 -20z"/>
<path d="M240 235 c0 -11 11 -15 40 -15 29 0 40 4 40 15 0 11 -11 15 -40 15
-29 0 -40 -4 -40 -15z"/>
<path d="M240 165 c0 -11 11 -15 40 -15 29 0 40 4 40 15 0 11 -11 15 -40 15
-29 0 -40 -4 -40 -15z"/>
</g>
</svg>
