<?xml version="1.0" standalone="no"?>
<!DOCTYPE svg PUBLIC "-//W3C//DTD SVG 20010904//EN"
 "http://www.w3.org/TR/2001/REC-SVG-20010904/DTD/svg10.dtd">
<svg version="1.0" xmlns="http://www.w3.org/2000/svg"
 width="48.000000pt" height="48.000000pt" viewBox="0 0 48.000000 48.000000"
 preserveAspectRatio="xMidYMid meet">

<g transform="translate(0.000000,48.000000) scale(0.100000,-0.100000)"
fill="#000000" stroke="none">
<path d="M20 406 c0 -9 12 -16 28 -18 26 -3 28 -7 47 -105 27 -138 34 -145
144 -141 109 4 113 22 6 26 -43 2 -84 7 -91 13 -7 5 -20 55 -30 110 -9 56 -24
107 -31 115 -19 19 -73 19 -73 0z"/>
<path d="M160 365 c0 -13 21 -15 130 -15 l130 0 -1 -27 c0 -16 -6 -53 -12 -83
-9 -41 -18 -58 -34 -65 -27 -12 -30 -35 -5 -35 35 0 54 25 67 90 18 81 18 123
3 138 -8 8 -55 12 -145 12 -112 0 -133 -2 -133 -15z"/>
<path d="M174 106 c-10 -26 4 -48 28 -44 33 4 33 52 0 56 -13 2 -25 -3 -28
-12z"/>
<path d="M314 106 c-10 -26 4 -48 28 -44 33 4 33 52 0 56 -13 2 -25 -3 -28
-12z"/>
</g>
</svg>
