<?xml version="1.0" standalone="no"?>
<!DOCTYPE svg PUBLIC "-//W3C//DTD SVG 20010904//EN"
 "http://www.w3.org/TR/2001/REC-SVG-20010904/DTD/svg10.dtd">
<svg version="1.0" xmlns="http://www.w3.org/2000/svg"
 width="48.000000pt" height="48.000000pt" viewBox="0 0 48.000000 48.000000"
 preserveAspectRatio="xMidYMid meet">

<g transform="translate(0.000000,48.000000) scale(0.100000,-0.100000)"
fill="#000000" stroke="none">
<path d="M190 434 c-55 -22 -80 -38 -80 -50 0 -19 9 -18 55 6 115 59 245 -27
245 -161 0 -28 4 -39 13 -36 8 3 12 23 11 60 -2 101 -73 174 -175 182 -30 3
-61 2 -69 -1z"/>
<path d="M200 340 c-11 -11 -20 -29 -20 -40 0 -26 34 -60 60 -60 26 0 60 34
60 60 0 11 -9 29 -20 40 -11 11 -29 20 -40 20 -11 0 -29 -9 -40 -20z m65 -40
c0 -18 -6 -26 -23 -28 -24 -4 -38 18 -28 44 3 9 15 14 28 12 17 -2 23 -10 23
-28z"/>
<path d="M44 275 c-14 -76 21 -158 85 -200 73 -48 177 -42 240 15 56 52 32 71
-25 20 -62 -54 -150 -52 -214 6 -46 42 -65 91 -56 150 4 34 2 44 -9 44 -8 0
-17 -14 -21 -35z"/>
<path d="M150 205 c-31 -38 23 -95 90 -95 67 0 121 57 90 95 -18 21 -162 21
-180 0z m158 -32 c-4 -24 -60 -38 -100 -27 -18 6 -34 17 -36 27 -3 15 6 17 68
17 62 0 71 -2 68 -17z"/>
</g>
</svg>
